<svg width="25" height="25" viewBox="0 0 25 25" fill="none" xmlns="http://www.w3.org/2000/svg">
<path d="M11.9996 16.5925C12.0888 16.4715 12.1334 16.3887 12.2035 16.325C15.4263 13.0958 18.6491 9.87301 21.8719 6.64382C22.184 6.33172 22.528 6.17249 22.9674 6.29351C23.6681 6.49095 23.9356 7.33169 23.4833 7.90492C23.4197 7.98772 23.3432 8.05778 23.2732 8.12784C19.8019 11.5991 16.3307 15.0703 12.8531 18.5479C12.2544 19.1466 11.7258 19.1466 11.1271 18.5479C9.8341 17.2549 8.53478 15.962 7.24183 14.6627C6.64949 14.0703 6.85331 13.1468 7.62398 12.9239C8.03798 12.8029 8.38829 12.9239 8.68764 13.2296C9.71946 14.2678 10.7576 15.2996 11.7958 16.3378C11.8531 16.3951 11.9041 16.4715 11.9996 16.5925Z" fill="#D6D6D6"/>
<path d="M11.98 13.3824C11.5596 13.3697 11.2475 13.1722 11.0692 12.7964C10.8909 12.4143 10.9482 12.0512 11.203 11.72C11.2348 11.6755 11.2794 11.6372 11.3176 11.599C12.98 9.93666 14.6487 8.26792 16.3111 6.60556C16.6741 6.24251 17.1136 6.15334 17.5276 6.35716C18.139 6.65651 18.2919 7.45903 17.8206 7.96857C17.5722 8.23608 17.3047 8.49085 17.0499 8.74561C15.6296 10.166 14.2029 11.5927 12.7825 13.013C12.5596 13.2423 12.3048 13.3888 11.98 13.3824Z" fill="#D6D6D6"/>
<path d="M7.40092 17.9809C7.38181 18.4076 7.18436 18.7261 6.79584 18.898C6.39458 19.0764 6.01243 19 5.6876 18.707C5.45831 18.4968 5.24812 18.2739 5.0252 18.0509C3.89148 16.9172 2.75139 15.7835 1.61767 14.637C1.04444 14.0574 1.26099 13.1339 2.0253 12.9174C2.43929 12.8027 2.7896 12.9237 3.08896 13.2294C4.24815 14.3886 5.40735 15.5478 6.56655 16.707C6.75126 16.8917 6.94233 17.0765 7.12067 17.2675C7.31175 17.465 7.40729 17.7006 7.40092 17.9809Z" fill="#D6D6D6"/>
</svg>

